HIERARCHY
ROOT Hips
{
	OFFSET 0.000000 0.000000 0.000000
	CHANNELS 6 Xposition Yposition Zposition Zrotation Yrotation Xrotation 
	JOINT LHipJoint
	{
		OFFSET 0.000000 0.000000 0.000000
		CHANNELS 3 Zrotation Yrotation Xrotation
		JOINT LeftUpLeg
		{
			OFFSET 1.363060 -1.794630 0.839290
			CHANNELS 3 Zrotation Yrotation Xrotation
			JOINT LeftLeg
			{
				OFFSET 2.448110 -6.726130 0.000000
				CHANNELS 3 Zrotation Yrotation Xrotation
				JOINT LeftFoot
				{
					OFFSET 2.562200 -7.039590 0.000000
					CHANNELS 3 Zrotation Yrotation Xrotation
					JOINT LeftToeBase
					{
						OFFSET 0.157640 -0.433110 2.322550
						CHANNELS 3 Zrotation Yrotation Xrotation
						End Site
						{
							OFFSET 0.000000 0.000000 0.000000
						}
					}
				}
			}
		}
	}
	JOINT RHipJoint
	{
		OFFSET 0.000000 0.000000 0.000000
		CHANNELS 3 Zrotation Yrotation Xrotation
		JOINT RightUpLeg
		{
			OFFSET -1.305520 -1.794630 0.839290
			CHANNELS 3 Zrotation Yrotation Xrotation
			JOINT RightLeg
			{
				OFFSET -2.542530 -6.985550 0.000000
				CHANNELS 3 Zrotation Yrotation Xrotation
				JOINT RightFoot
				{
					OFFSET -2.568260 -7.056230 0.000000
					CHANNELS 3 Zrotation Yrotation Xrotation
					JOINT RightToeBase
					{
						OFFSET -0.164730 -0.452590 2.363150
						CHANNELS 3 Zrotation Yrotation Xrotation
						End Site
						{
							OFFSET 0.000000 0.000000 0.000000
						}
					}
				}
			}
		}
	}
}
MOTION
Frames: 13
Frame Time: 0.008333
9.181115 16.964693 -2.212216 -171.514552 65.787385 -154.106839 -8.849301 2.292473 3.611342 -25.594378 1.062881 -38.052901 -4.047091 -0.901536 14.039174 1.200992 2.750150 -12.311032 -0.316001 0.000000 -20.211200 10.418576 -5.061523 -1.642216 4.191010 -22.022555 -3.036053 1.474345 -1.677456 21.103035 0.054807 9.678640 27.515329 5.348300 0.000000 -87.876500
9.376638 16.876936 -2.301066 -170.944784 65.478734 -153.659911 -8.848560 2.288230 3.743925 -25.179156 0.236803 -38.676068 -3.874981 -0.671661 16.409859 1.382415 3.270697 -13.514274 -0.472500 0.000000 -13.946000 10.497833 -5.080753 -1.687344 3.761647 -22.453676 -3.385032 1.357121 -1.790492 23.335934 0.037423 11.592748 28.425707 6.574700 -0.000000 -88.005200
9.566717 16.789759 -2.391080 -170.436399 65.196369 -153.298328 -8.863406 2.275821 3.842639 -24.713049 -0.582301 -39.389435 -3.674573 -0.382612 19.356162 1.571384 3.771458 -14.913542 -0.672900 -0.000000 -7.637600 10.584778 -5.067788 -1.752409 3.263340 -22.933120 -3.861252 1.217049 -1.898508 25.773460 -0.018660 13.224124 29.420603 7.711500 -0.000000 -87.908600
9.750919 16.705152 -2.482651 -169.980832 64.945709 -153.026366 -8.899337 2.251791 3.896741 -24.236251 -1.316186 -40.104680 -3.457135 -0.062300 22.647244 1.749988 4.223388 -16.387823 -0.901400 -0.000000 -1.912800 10.673779 -5.021867 -1.838622 2.704273 -23.440463 -4.434313 1.056957 -2.000684 28.368911 -0.112679 14.408410 30.498409 8.658000 -0.000000 -87.602000
9.929262 16.625437 -2.576034 -169.594079 64.730626 -152.860369 -8.953509 2.216136 3.906322 -23.791351 -1.927023 -40.714328 -3.237114 0.255670 26.008149 1.909793 4.629571 -17.843743 178.856300 -0.000000 -2.800300 10.763013 -4.941002 -1.945272 2.086075 -23.947681 -5.089004 0.881681 -2.097665 31.084126 -0.241059 15.001373 31.622422 9.302700 -0.000001 -86.955100
10.102356 16.553154 -2.671127 -169.312700 64.553837 -152.822531 -9.015473 2.173603 3.878402 -23.422410 -2.404215 -41.128650 -3.031866 0.541838 29.183221 2.050987 5.001900 -19.239697 178.607900 -0.000000 -6.366800 10.853371 -4.823760 -2.066287 1.415468 -24.417157 -5.825133 0.697707 -2.190578 33.876456 -0.399907 14.888058 32.736013 9.534200 -0.000000 -85.909400
10.270915 16.490672 -2.768201 -169.156918 64.412598 -152.913093 -9.073167 2.130664 3.822424 -23.164589 -2.752096 -41.290762 -2.856613 0.776125 31.973034 2.179274 5.352614 -20.572318 178.354000 -0.000001 -8.857100 10.945260 -4.671148 -2.191012 0.710544 -24.804721 -6.654142 0.513090 -2.281677 36.705385 -0.584768 14.006806 33.749221 9.262200 -0.000000 -84.311400
10.435846 16.439945 -2.867528 -169.126492 64.303827 -153.108507 -9.118229 2.092354 3.748091 -23.026961 -2.980979 -41.184163 -2.720942 0.948817 34.250215 2.301587 5.689906 -21.851910 178.092799 -0.000000 -10.419100 11.035877 -4.487953 -2.304386 0.012502 -25.057178 -7.591772 0.335193 -2.373643 39.523932 -0.790931 12.360176 34.556851 8.442300 -0.000000 -82.179800
10.597699 16.402264 -2.969892 -169.187986 64.223150 -153.358594 -9.148178 2.060392 3.663516 -22.994676 -3.103463 -40.815830 -2.627671 1.057064 35.945205 2.423130 6.019257 -23.079958 177.823500 0.000000 -11.205200 11.119713 -4.282508 -2.391653 -0.629296 -25.123465 -8.649824 0.169313 -2.469740 42.287031 -1.011903 10.040733 35.043635 7.107200 0.000001 -79.515500
10.757037 16.378275 -3.075801 -169.312597 64.172112 -153.624569 -9.162854 2.034729 3.574233 -23.045740 -3.135080 -40.197993 -2.574972 1.101915 37.027947 2.546246 6.345451 -24.237856 177.548500 0.000000 -11.345300 11.192937 -4.063842 -2.441693 -1.181079 -24.965286 -9.829821 0.017581 -2.573003 44.951583 -1.239341 7.233688 35.115462 5.380900 0.000000 -76.467000
10.914070 16.367875 -3.186250 -169.430616 64.148938 -153.833337 -9.169913 2.012308 3.484951 -23.133084 -3.087743 -39.362490 -2.556192 1.087841 37.511485 2.668075 6.661848 -25.292061 177.277000 0.000000 -10.962699 11.247963 -3.844150 -2.445614 -1.597613 -24.549586 -11.126837 -0.121643 -2.684420 47.475158 -1.462513 4.175815 34.715896 3.447400 -0.000000 -73.167600
11.068877 16.370379 -3.301986 -169.485357 64.153908 -153.930487 -9.177349 1.990103 3.398583 -23.214337 -2.975420 -38.338730 -2.562799 1.020832 37.431869 2.782734 6.959517 -26.196413 177.022299 0.000000 -10.189700 11.280351 -3.633136 -2.399925 -1.857224 -23.863065 -12.525887 -0.251921 -2.802353 49.819172 -1.670561 1.120241 33.845145 1.516300 -0.000000 -69.854300
11.221529 16.384608 -3.423339 -169.436616 64.186685 -153.881883 -9.192654 1.965508 3.317031 -23.254417 -2.815158 -37.154578 -2.585394 0.908192 36.844356 2.882756 7.228793 -26.903134 176.800200 0.000000 -9.185500 11.288156 -3.436988 -2.305942 -1.958410 -22.911123 -14.003948 -0.376824 -2.922865 51.951398 -1.853488 -1.712346 32.546450 -0.228801 0.000000 -66.702800
